<svg width="134" height="161" viewBox="0 0 134 161" fill="none" xmlns="http://www.w3.org/2000/svg">
<path d="M124.144 139.4C117.644 139.4 114.844 136.8 114.844 130.7V90C114.844 84 117.644 81.3 124.144 81.3C130.644 81.3 133.444 84 133.444 90V111.2H121.944V131.2C121.944 133.1 122.744 133.9 124.144 133.9C125.544 133.9 126.344 133.1 126.344 131.2V117.5H133.444V130.7C133.444 136.8 130.644 139.4 124.144 139.4ZM121.944 105.8H126.344V89.5C126.344 87.6 125.544 86.8 124.144 86.8C122.744 86.8 121.944 87.6 121.944 89.5V105.8Z" fill="#3B230E"/>
<path d="M105.003 139.4C98.5031 139.4 95.7031 136.8 95.7031 130.7V90C95.7031 84 98.5031 81.3 105.003 81.3C111.503 81.3 114.303 84 114.303 90V111.2H102.803V131.2C102.803 133.1 103.603 133.9 105.003 133.9C106.403 133.9 107.203 133.1 107.203 131.2V117.5H114.303V130.7C114.303 136.8 111.503 139.4 105.003 139.4ZM102.803 105.8H107.203V89.5C107.203 87.6 106.403 86.8 105.003 86.8C103.603 86.8 102.803 87.6 102.803 89.5V105.8Z" fill="#3B230E"/>
<path d="M85.8625 139.4C79.3625 139.4 76.5625 136.8 76.5625 130.7V90C76.5625 84 79.3625 81.3 85.8625 81.3C92.3625 81.3 95.1625 84 95.1625 90V111.2H83.6625V131.2C83.6625 133.1 84.4625 133.9 85.8625 133.9C87.2625 133.9 88.0625 133.1 88.0625 131.2V117.5H95.1625V130.7C95.1625 136.8 92.3625 139.4 85.8625 139.4ZM83.6625 105.8H88.0625V89.5C88.0625 87.6 87.2625 86.8 85.8625 86.8C84.4625 86.8 83.6625 87.6 83.6625 89.5V105.8Z" fill="#3B230E"/>
<path d="M66.7219 139.4C60.2219 139.4 57.4219 136.8 57.4219 130.7V90C57.4219 84 60.2219 81.3 66.7219 81.3C73.2219 81.3 76.0219 84 76.0219 90V111.2H64.5219V131.2C64.5219 133.1 65.3219 133.9 66.7219 133.9C68.1219 133.9 68.9219 133.1 68.9219 131.2V117.5H76.0219V130.7C76.0219 136.8 73.2219 139.4 66.7219 139.4ZM64.5219 105.8H68.9219V89.5C68.9219 87.6 68.1219 86.8 66.7219 86.8C65.3219 86.8 64.5219 87.6 64.5219 89.5V105.8Z" fill="#3B230E"/>
<path d="M38.2812 160.7V81.5H45.3812V83.3C46.4812 81.8 48.2813 81.1 50.4813 81.1C54.4813 81.1 56.8812 83.5 56.8812 88.4V132.1C56.8812 137.4 54.2813 139.6 50.4813 139.6C48.3813 139.6 46.5812 138.8 45.3812 137.4V160.7H38.2812ZM47.5812 133.1C48.9812 133.1 49.7812 132.3 49.7812 130.7V90C49.7812 88.3 48.9812 87.5 47.5812 87.5C46.1812 87.5 45.3812 88.3 45.3812 90V130.7C45.3812 132.3 46.1812 133.1 47.5812 133.1Z" fill="#3B230E"/>
<path d="M19.1406 160.7V81.5H26.2406V83.3C27.3406 81.8 29.1406 81.1 31.3406 81.1C35.3406 81.1 37.7406 83.5 37.7406 88.4V132.1C37.7406 137.4 35.1406 139.6 31.3406 139.6C29.2406 139.6 27.4406 138.8 26.2406 137.4V160.7H19.1406ZM28.4406 133.1C29.8406 133.1 30.6406 132.3 30.6406 130.7V90C30.6406 88.3 29.8406 87.5 28.4406 87.5C27.0406 87.5 26.2406 88.3 26.2406 90V130.7C26.2406 132.3 27.0406 133.1 28.4406 133.1Z" fill="#3B230E"/>
<path d="M6.4 139.6C2.3 139.6 0 137 0 132.4V118.7C0 116 0.3 114.75 1.55 112.75L10.1 99.2C11.2 97.5 11.5 96.3 11.5 94.7V89.25C11.5 87.6 10.8 86.8 9.4 86.8C8.05 86.8 7.3 87.6 7.3 89.25V102.7H0.3V89.9C0.3 84 3.1 81.3 9.4 81.3C15.8 81.3 18.6 84 18.6 89.9V139.2H11.5V137.4C10.4 138.9 8.6 139.6 6.4 139.6ZM9.3 133.9C10.7 133.9 11.5 133 11.5 131.5V109L8.15 114.5C7.4 115.7 7.1 116.5 7.1 118.4V131.5C7.1 133 7.9 133.9 9.3 133.9Z" fill="#3B230E"/>
<path d="M113.281 79.2V21.5H120.381V23.3C121.581 21.8 123.481 21.1 125.481 21.1C129.481 21.1 131.881 23.4 131.881 28.8V79.2H124.781V30.3C124.781 28.4 123.981 27.6 122.581 27.6C121.181 27.6 120.381 28.4 120.381 30.3V79.2H113.281Z" fill="#3B230E"/>
<path d="M100.541 79.6C96.4406 79.6 94.1406 77 94.1406 72.4V58.7C94.1406 56 94.4406 54.75 95.6906 52.75L104.241 39.2C105.341 37.5 105.641 36.3 105.641 34.7V29.25C105.641 27.6 104.941 26.8 103.541 26.8C102.191 26.8 101.441 27.6 101.441 29.25V42.7H94.4406V29.9C94.4406 24 97.2406 21.3 103.541 21.3C109.941 21.3 112.741 24 112.741 29.9V79.2H105.641V77.4C104.541 78.9 102.741 79.6 100.541 79.6ZM103.441 73.9C104.841 73.9 105.641 73 105.641 71.5V49L102.291 54.5C101.541 55.7 101.241 56.5 101.241 58.4V71.5C101.241 73 102.041 73.9 103.441 73.9Z" fill="#3B230E"/>
<path d="M93.6 79.2H86.5V77.4C85.3 78.8 83.6 79.6 81.5 79.6C77.6 79.6 75 77.4 75 72.1V28.5C75 23.6 77.4 21.1 81.5 21.1C83.7 21.1 85.4 21.9 86.5 23.4V0H93.6V79.2ZM84.4 73.1C85.6 73.1 86.5 72.2 86.5 70.6V30C86.5 28.4 85.6 27.6 84.4 27.6C82.9 27.6 82.2 28.4 82.2 30V70.6C82.2 72.2 82.9 73.1 84.4 73.1Z" fill="#3B230E"/>
<path d="M55.8594 79.2V21.5H62.9594V23.3C64.1594 21.8 66.0594 21.1 68.0594 21.1C72.0594 21.1 74.4594 23.4 74.4594 28.8V79.2H67.3594V30.3C67.3594 28.4 66.5594 27.6 65.1594 27.6C63.7594 27.6 62.9594 28.4 62.9594 30.3V79.2H55.8594Z" fill="#3B230E"/>
<path d="M46.0187 79.4C39.5187 79.4 36.7188 76.8 36.7188 70.7V30C36.7188 24 39.5187 21.3 46.0187 21.3C52.5187 21.3 55.3187 24 55.3187 30V51.2H43.8187V71.2C43.8187 73.1 44.6187 73.9 46.0187 73.9C47.4187 73.9 48.2188 73.1 48.2188 71.2V57.5H55.3187V70.7C55.3187 76.8 52.5187 79.4 46.0187 79.4ZM43.8187 45.8H48.2188V29.5C48.2188 27.6 47.4187 26.8 46.0187 26.8C44.6187 26.8 43.8187 27.6 43.8187 29.5V45.8Z" fill="#3B230E"/>
<path d="M19.1406 79.2V21.5H26.2406V23.1C27.2406 21.8 28.8406 21.1 30.8406 21.1C34.2406 21.1 36.2406 23.2 36.2406 27.3V42.7H29.8406V29.6C29.8406 27.9 28.7406 27.6 28.0406 27.6C27.2406 27.6 26.2406 27.9 26.2406 29.6V79.2H19.1406Z" fill="#3B230E"/>
<path d="M0 79.2V0H7.1V23.3C8.2 21.8 10 21.1 12.2 21.1C16.2 21.1 18.6 23.5 18.6 28.4V72.1C18.6 77.4 16 79.6 12.2 79.6C10.1 79.6 8.3 78.8 7.1 77.4V79.2H0ZM9.3 73.1C10.7 73.1 11.5 72.3 11.5 70.7V30C11.5 28.3 10.7 27.5 9.3 27.5C7.9 27.5 7.1 28.3 7.1 30V70.7C7.1 72.3 7.9 73.1 9.3 73.1Z" fill="#3B230E"/>
</svg>
